<svg xmlns="http://www.w3.org/2000/svg" width="116.2951" height="122.4242" viewBox="0 0 116.2951 122.4242"><title>Symbols_Btn</title><g id="Layer_6" data-name="Layer 6"><rect x="2" y="2" width="112.2951" height="118.4242" rx="17.921" ry="17.921" fill="#fff" stroke="#000" stroke-miterlimit="10" stroke-width="4"/></g><g id="Layer_10" data-name="Layer 10"><path d="M158.93,62.85h-3.9v-4.9a9.048,9.048,0,0,0-9.1-9H91.53a9.1332,9.1332,0,0,0-9.1,9.1v4.8h-3.8a4.6946,4.6946,0,0,0-4.7,4.7v13.3a4.6946,4.6946,0,0,0,4.7,4.7h3.9v44.3a8.94,8.94,0,0,0,6.6,8.7v7a1.538,1.538,0,0,0,1.5,1.5h11.2a1.538,1.538,0,0,0,1.5-1.5v-6.6h31.1v6.6a1.538,1.538,0,0,0,1.5,1.5h11.2a1.538,1.538,0,0,0,1.5-1.5v-7a9.0625,9.0625,0,0,0,6.4-8.7V85.45h3.9a4.6946,4.6946,0,0,0,4.7-4.7V67.55A4.6946,4.6946,0,0,0,158.93,62.85Zm-6.9,44.5h-31.8V64.55h31.8Zm-66.5-42.8h31.7v42.9H85.53Zm6-12.6h54.4a6.0176,6.0176,0,0,1,6,6v3.5H85.53v-3.5A6.0176,6.0176,0,0,1,91.53,51.95Zm-12.9,30.5a1.7524,1.7524,0,0,1-1.7-1.7V67.55a1.7524,1.7524,0,0,1,1.7-1.7h3.9v16.6Zm21.7,61.5h-8.1v-5.1h8.1Zm45.3,0h-8.1v-5.1h8.1Zm.3-8.1H91.53a6.0176,6.0176,0,0,1-6-6v-1.9h16.3a1.538,1.538,0,0,0,1.5-1.5v-7.2a1.538,1.538,0,0,0-1.5-1.5H85.53v-7.3h66.5v7.3h-16a1.538,1.538,0,0,0-1.5,1.5v7.2a1.538,1.538,0,0,0,1.5,1.5h16v1.9A6.1042,6.1042,0,0,1,145.93,135.85Zm-45.6-15.1v4.1h-7.5v-4.1Zm-10.6,4.1h-3.7v-4.1h3.7Zm47.7,0v-4.1h7.5v4.1Zm10.6-4.1h3.7v4.1h-3.7Zm12.6-40a1.7524,1.7524,0,0,1-1.7,1.7h-3.9V65.85h3.9a1.7524,1.7524,0,0,1,1.7,1.7Z" transform="translate(-60.3285 -35.9399)"/><path d="M90.43,73.95l6.3-4.3a1.5116,1.5116,0,1,0-1.7-2.5l-6.3,4.3a1.48,1.48,0,0,0-.4,2.1,1.6935,1.6935,0,0,0,1.2.7A1.6129,1.6129,0,0,0,90.43,73.95Z" transform="translate(-60.3285 -35.9399)"/><path d="M101.13,72.15a1.48,1.48,0,0,0-2.1-.4l-8.9,6a1.48,1.48,0,0,0-.4,2.1,1.7094,1.7094,0,0,0,1.3.7,1.1355,1.1355,0,0,0,.8-.3l8.9-6A1.4646,1.4646,0,0,0,101.13,72.15Z" transform="translate(-60.3285 -35.9399)"/><path d="M108.53,57.95h20.4a1.5,1.5,0,0,0,0-3h-20.4a1.4727,1.4727,0,0,0-1.5,1.5A1.538,1.538,0,0,0,108.53,57.95Z" transform="translate(-60.3285 -35.9399)"/><path d="M125.83,118.25h-14.2a1.5,1.5,0,0,0,0,3h14.2a1.538,1.538,0,0,0,1.5-1.5A1.4172,1.4172,0,0,0,125.83,118.25Z" transform="translate(-60.3285 -35.9399)"/><path d="M125.83,124.85h-14.2a1.5,1.5,0,0,0,0,3h14.2a1.538,1.538,0,0,0,1.5-1.5A1.4727,1.4727,0,0,0,125.83,124.85Z" transform="translate(-60.3285 -35.9399)"/></g></svg>