<svg xmlns="http://www.w3.org/2000/svg" width="116.2951" height="122.4242" viewBox="0 0 116.2951 122.4242"><title>Crosswalk_Btn</title><g id="Layer_6" data-name="Layer 6"><rect x="2" y="2" width="112.2951" height="118.4242" rx="17.921" ry="17.921" fill="#fff" stroke="#000" stroke-miterlimit="10" stroke-width="4"/></g><g id="Layer_1" data-name="Layer 1"><path d="M102.4066,46.67a3.2026,3.2026,0,0,0-3.8506,2.39L77.8425,140.4125a3.2026,3.2026,0,0,0,2.39,3.8506,5.7574,5.7574,0,0,1,.6639.1327A3.1254,3.1254,0,0,0,83.95,141.873l20.8463-91.352A3.2025,3.2025,0,0,0,102.4066,46.67Z" transform="translate(-60.3285 -35.9399)"/><path d="M159.6344,140.4125,138.7881,49.06a3.2046,3.2046,0,1,0-6.2406,1.4606l20.8463,91.352a3.2385,3.2385,0,0,0,3.0539,2.5229.9948.9948,0,0,0,.6639-.1328A3.19,3.19,0,0,0,159.6344,140.4125Z" transform="translate(-60.3285 -35.9399)"/><path d="M119.4023,57.4255a3.2311,3.2311,0,0,0-3.1867,3.1867v3.9834a3.1867,3.1867,0,1,0,6.3734,0V60.6122A3.1455,3.1455,0,0,0,119.4023,57.4255Z" transform="translate(-60.3285 -35.9399)"/><path d="M119.4023,73.359a3.2311,3.2311,0,0,0-3.1867,3.1867v3.9834a3.1867,3.1867,0,0,0,6.3734,0V76.5457A3.1455,3.1455,0,0,0,119.4023,73.359Z" transform="translate(-60.3285 -35.9399)"/><path d="M119.4023,89.2925a3.2311,3.2311,0,0,0-3.1867,3.1867v3.9834a3.1867,3.1867,0,0,0,6.3734,0V92.4792A3.1455,3.1455,0,0,0,119.4023,89.2925Z" transform="translate(-60.3285 -35.9399)"/><path d="M119.4023,105.226a3.2311,3.2311,0,0,0-3.1867,3.1867V128.33a3.1867,3.1867,0,0,0,6.3734,0V108.4127A3.1455,3.1455,0,0,0,119.4023,105.226Z" transform="translate(-60.3285 -35.9399)"/><path d="M119.4023,137.093a3.2311,3.2311,0,0,0-3.1867,3.1867v3.9834a3.1867,3.1867,0,0,0,6.3734,0V140.28A3.1455,3.1455,0,0,0,119.4023,137.093Z" transform="translate(-60.3285 -35.9399)"/><path d="M108.6472,105.226a3.23,3.23,0,0,0-3.32,3.0539l-.6639,19.7841a3.3275,3.3275,0,0,0,3.054,3.32h.1327a3.1182,3.1182,0,0,0,3.1867-3.0539l.6639-19.7841A3,3,0,0,0,108.6472,105.226Z" transform="translate(-60.3285 -35.9399)"/><path d="M98.9543,105.3588a3.1494,3.1494,0,0,0-3.585,2.6556l-2.7884,19.6513a3.15,3.15,0,0,0,2.6556,3.585h.3984a3.2711,3.2711,0,0,0,3.1867-2.7884l2.7883-19.5185A3.1494,3.1494,0,0,0,98.9543,105.3588Z" transform="translate(-60.3285 -35.9399)"/><path d="M130.0247,105.226a3.1492,3.1492,0,0,0-3.054,3.32l.6639,19.7841a3.1183,3.1183,0,0,0,3.1867,3.0539h.1328a3.1491,3.1491,0,0,0,3.0539-3.32l-.6639-19.7841A3.0738,3.0738,0,0,0,130.0247,105.226Z" transform="translate(-60.3285 -35.9399)"/><path d="M143.4353,108.0144a3.1547,3.1547,0,1,0-6.2406.9294l2.7884,19.6513a3.271,3.271,0,0,0,3.1867,2.7884h.3983a3.1494,3.1494,0,0,0,2.6556-3.585Z" transform="translate(-60.3285 -35.9399)"/></g></svg>