<svg xmlns="http://www.w3.org/2000/svg" width="116.2951" height="122.4242" viewBox="0 0 116.2951 122.4242"><title>Pothole_Btn</title><g id="Layer_6" data-name="Layer 6"><rect x="2" y="2" width="112.2951" height="118.4242" rx="17.921" ry="17.921" fill="#fff" stroke="#000" stroke-miterlimit="10" stroke-width="4"/></g><g id="Layer_4" data-name="Layer 4"><path d="M98.4614,120.5205A2.511,2.511,0,0,0,100.77,118.19a2.6663,2.6663,0,0,0-2.02-2.9966l-13.8525-1.8867A2.444,2.444,0,0,0,82.3,115.6372a2.6663,2.6663,0,0,0,2.02,2.9966l13.8525,1.8867Z" transform="translate(-60.3285 -35.9399)"/><path d="M94.9021,111.7528a2.41,2.41,0,0,0,2.2125-1.7757,2.8568,2.8568,0,0,0-1.3468-3.44L74.22,97.5468a2.2667,2.2667,0,0,0-2.9821,1.5538,2.8569,2.8569,0,0,0,1.3467,3.4405l21.4521,8.99A4.3263,4.3263,0,0,0,94.9021,111.7528Z" transform="translate(-60.3285 -35.9399)"/><path d="M109.5241,126.4006a2.2546,2.2546,0,0,0,.962,1.4912,2.6657,2.6657,0,0,0,1.2505.3976.8436.8436,0,0,0,.481-.0994l11.7361-2.6841a2.4016,2.4016,0,0,0,1.7316-2.8829l-1.5392-7.7542,32.9-7.4558a2.4018,2.4018,0,0,0,1.7315-2.883,2.3187,2.3187,0,0,0-2.79-1.7894l-35.2083,7.953a2.4016,2.4016,0,0,0-1.7316,2.8829l1.6354,7.8535-7.1186,1.69-6.83-32.11,7.311-24.0577,11.64-2.6841a2.4017,2.4017,0,0,0,1.7315-2.8829,2.3186,2.3186,0,0,0-2.79-1.7894L111.64,62.5783a2.5528,2.5528,0,0,0-1.7315,1.5906l-7.8882,26.0459a4.6026,4.6026,0,0,0,.0962,1.0935Z" transform="translate(-60.3285 -35.9399)"/><path d="M126.84,98.5457a2.3758,2.3758,0,0,0,2.2126,2.1087.77.77,0,0,0,.481-.111l23.0874-5.8821a2.715,2.715,0,0,0,1.7315-3.2186,2.33,2.33,0,0,0-2.79-1.9977L128.475,95.3272A2.9724,2.9724,0,0,0,126.84,98.5457Z" transform="translate(-60.3285 -35.9399)"/><path d="M125.5891,91.4427a2.3757,2.3757,0,0,0,2.2125,2.1087.77.77,0,0,0,.481-.111l18.5661-4.6613a2.7148,2.7148,0,0,0,1.7316-3.2185,2.33,2.33,0,0,0-2.79-1.9977l-18.5661,4.6613A2.8877,2.8877,0,0,0,125.5891,91.4427Z" transform="translate(-60.3285 -35.9399)"/><path d="M111.448,97.6578c0,3.6625,2.5974,6.6591,5.7719,6.6591s5.7718-2.9966,5.7718-6.6591-2.5973-6.659-5.7718-6.659S111.448,93.9954,111.448,97.6578Zm6.9263,0A1.1662,1.1662,0,1,1,117.22,96.326,1.2723,1.2723,0,0,1,118.3743,97.6578Z" transform="translate(-60.3285 -35.9399)"/><path d="M163.2985,125.2929H132.3229a2.0282,2.0282,0,0,0-1.5392.6659,24.5956,24.5956,0,0,1-9.1387,5.66c-7.311,2.5527-14.3335.555-20.8749-5.7711a2.1777,2.1777,0,0,0-3.2707.3329,3.0769,3.0769,0,0,0,.2886,3.7735c6.349,6.1041,12.5057,7.9908,17.7965,7.9908a24.5754,24.5754,0,0,0,7.4072-1.2208,31.43,31.43,0,0,0,10.197-6.1041h30.11a2.6909,2.6909,0,0,0,0-5.3272Z" transform="translate(-60.3285 -35.9399)"/><path d="M80.6648,125.2929H76.24a2.6909,2.6909,0,0,0,0,5.3272h4.4251a2.5405,2.5405,0,0,0,2.3088-2.6636A2.4753,2.4753,0,0,0,80.6648,125.2929Z" transform="translate(-60.3285 -35.9399)"/></g></svg>