<svg xmlns="http://www.w3.org/2000/svg" width="116.2951" height="122.4242" viewBox="0 0 116.2951 122.4242"><title>Sign_Btn</title><g id="Layer_6" data-name="Layer 6"><rect x="2" y="2" width="112.2951" height="118.4242" rx="17.921" ry="17.921" fill="#fff" stroke="#000" stroke-miterlimit="10" stroke-width="4"/></g><g id="Layer_7" data-name="Layer 7"><path d="M136.864,132.699H126.4432a1.4886,1.4886,0,0,1-1.4886-1.4886V113.0909a1.4883,1.4883,0,0,1,.436-1.0526L151.3139,86.115a1.4886,1.4886,0,0,0,0-2.1053L120.0526,52.7484a1.4887,1.4887,0,0,0-2.1052,0L86.6861,84.01a1.4886,1.4886,0,0,0,0,2.1053l25.9233,25.9233a1.4883,1.4883,0,0,1,.436,1.0526V131.21a1.4886,1.4886,0,0,1-1.4886,1.4886H101.1359a1.4887,1.4887,0,0,0-1.4123,1.0179l-2.2987,6.8961a1.4886,1.4886,0,0,1-1.4122,1.0179H80.2952a1.4887,1.4887,0,0,0-1.4887,1.4887h0a1.4887,1.4887,0,0,0,1.4887,1.4886h77.41a1.4887,1.4887,0,0,0,1.4887-1.4886h0a1.4887,1.4887,0,0,0-1.4887-1.4887H141.986a1.4887,1.4887,0,0,1-1.4123-1.0181l-2.2974-6.8957A1.4888,1.4888,0,0,0,136.864,132.699ZM121.9175,58.8231l23.3217,23.3218a4.126,4.126,0,0,1,0,5.8349l-23.3217,23.3217a4.126,4.126,0,0,1-5.835,0L92.7608,87.98a4.1258,4.1258,0,0,1,0-5.8349l23.3217-23.3218A4.1261,4.1261,0,0,1,121.9175,58.8231ZM119,118.4289l2.9773-2.9773v11.2928h-5.9546V115.4516Zm-2.9773,11.2928h5.9546v2.9773h-5.9546Zm-14.2941,7.3968a2.11,2.11,0,0,1,2.0012-1.4422h30.54a2.11,2.11,0,0,1,2.0012,1.4422l.5788,1.7354a2.11,2.11,0,0,1-2.0012,2.777H103.151a2.11,2.11,0,0,1-2.0012-2.777Z" transform="translate(-60.3285 -35.9399)"/><rect x="101.8422" y="105.691" width="2.9773" height="2.9773"/><rect x="12.5234" y="105.691" width="2.9773" height="2.9773"/><path d="M117.7621,95.7884q-.025-.9057-.0251-1.3585a12.6684,12.6684,0,0,1,.7547-4.6038,10.4829,10.4829,0,0,1,1.7861-2.9434,33.8741,33.8741,0,0,1,3.2579-3.1572,15.387,15.387,0,0,0,3.0566-3.3082,5.3319,5.3319,0,0,0,.7044-2.6918,6.2766,6.2766,0,0,0-2.0629-4.6415,6.9877,6.9877,0,0,0-5.0566-2,6.7992,6.7992,0,0,0-4.83,1.8113,9.5424,9.5424,0,0,0-2.5409,5.66l-4.654-.5535a11.0795,11.0795,0,0,1,11.95-10.6415,12.2953,12.2953,0,0,1,8.629,2.9434,9.2984,9.2984,0,0,1,3.22,7.1195,9.0163,9.0163,0,0,1-1.1321,4.4528,21.1063,21.1063,0,0,1-4.4276,4.956,22.4137,22.4137,0,0,0-2.8931,2.8931,6.4469,6.4469,0,0,0-1.0063,2.1383,17.9215,17.9215,0,0,0-.3774,3.9246Zm-.2767,9.0817V99.7129h5.1572V104.87Z" transform="translate(-60.3285 -35.9399)"/></g></svg>