<svg xmlns="http://www.w3.org/2000/svg" width="116.2951" height="122.4242" viewBox="0 0 116.2951 122.4242"><title>tagIt</title><g id="Layer_6" data-name="Layer 6"><rect x="2" y="2" width="112.2951" height="118.4242" rx="17.921" ry="17.921" fill="#fff" stroke="#000" stroke-miterlimit="10" stroke-width="4"/></g><g id="Layer_11" data-name="Layer 11"><path d="M100.1155,93.3494a3.0419,3.0419,0,0,1-1.3707.3426,3.2686,3.2686,0,0,1-3.1983-3.1982,2.2956,2.2956,0,0,1,.4569-1.4849,1.9712,1.9712,0,0,0-.1142-1.9418,1.6258,1.6258,0,0,0-1.8276-.5712,2.8369,2.8369,0,0,1-.9138.1143A3.2688,3.2688,0,0,1,89.95,83.4119a3.2146,3.2146,0,0,1,1.1423-2.3987A1.9883,1.9883,0,0,0,91.6629,79.3a1.7272,1.7272,0,0,0-1.3707-1.2564,9.89,9.89,0,0,1-7.9957-9.5949,10.0452,10.0452,0,0,1,7.0819-9.4806,1.7157,1.7157,0,0,0,1.2565-1.7133v-.2285a4.6321,4.6321,0,0,1,4.6832-4.6832,4.9465,4.9465,0,0,1,4.112,2.2845A1.7436,1.7436,0,0,0,102.4,52.8a8.0529,8.0529,0,0,0-6.9677-3.9978,8.25,8.25,0,0,0-8.11,7.1961,13.2443,13.2443,0,0,0-.1142,24.5582,6.0829,6.0829,0,0,0-.6854,2.7414,6.6354,6.6354,0,0,0,5.7112,6.5107v.4569a6.63,6.63,0,0,0,6.625,6.625,7.3515,7.3515,0,0,0,2.7414-.5711,1.5946,1.5946,0,0,0,.8-2.2845A1.8137,1.8137,0,0,0,100.1155,93.3494Z" transform="translate(-60.3285 -35.9399)"/><path d="M105.2556,62.5089l24.33,8.7952a1.0291,1.0291,0,0,0,.5711.1143,1.7178,1.7178,0,0,0,1.5991-1.1423,1.6515,1.6515,0,0,0-1.028-2.17l-24.33-8.7953a1.6515,1.6515,0,0,0-2.17,1.028A1.6126,1.6126,0,0,0,105.2556,62.5089Z" transform="translate(-60.3285 -35.9399)"/><path d="M149.5745,78.2718V72.4464a5.9718,5.9718,0,0,0-5.94-5.94h-4.2263a1.7568,1.7568,0,0,0-1.7134,1.7134v9.9375a15.1859,15.1859,0,0,0-9.2521,14.0495v51.6293a1.7567,1.7567,0,0,0,1.7133,1.7134h27.0711a1.7568,1.7568,0,0,0,1.7134-1.7134V92.2071A15.4317,15.4317,0,0,0,149.5745,78.2718Zm-8.4526-8.2241h2.6272a2.5352,2.5352,0,0,1,2.5129,2.5129V77.358a18.6831,18.6831,0,0,0-2.5129-.2284,17.1116,17.1116,0,0,0-2.5129.2284v-7.31Zm2.5129,10.3944A11.8462,11.8462,0,0,1,155.4,92.3214H131.87A11.8462,11.8462,0,0,1,143.6348,80.4421ZM131.87,107.8558h7.5388V125.789H131.87ZM155.4,97.233v44.89H131.87V129.2157h9.2521a1.7567,1.7567,0,0,0,1.7134-1.7133v-21.36a1.7568,1.7568,0,0,0-1.7134-1.7134H131.87v-8.681H155.4Z" transform="translate(-60.3285 -35.9399)"/><path d="M131.7555,76.6727a1.6515,1.6515,0,0,0-2.17-1.028l-24.33,8.7952a1.6517,1.6517,0,0,0-1.028,2.17,1.7178,1.7178,0,0,0,1.5991,1.1422,1.03,1.03,0,0,0,.5711-.1142l24.33-8.7953A1.92,1.92,0,0,0,131.7555,76.6727Z" transform="translate(-60.3285 -35.9399)"/></g></svg>