<svg xmlns="http://www.w3.org/2000/svg" width="116.2951" height="122.4242" viewBox="0 0 116.2951 122.4242"><title>Traffic_Btn</title><g id="Layer_6" data-name="Layer 6"><rect x="2" y="2" width="112.2951" height="118.4242" rx="17.921" ry="17.921" fill="#fff" stroke="#000" stroke-miterlimit="10" stroke-width="4"/></g><g id="Layer_3" data-name="Layer 3"><path d="M101.6268,109.4537h22.13a2.669,2.669,0,0,0,0-5.338H97.7346a2.669,2.669,0,0,0,0,5.338Z" transform="translate(-60.3285 -35.9399)"/><path d="M91.1733,110.7882a6.6725,6.6725,0,1,0-6.6724,6.6725A6.6921,6.6921,0,0,0,91.1733,110.7882Zm-8.0069,0a1.3345,1.3345,0,1,1,2.669,0,1.3523,1.3523,0,0,1-1.3345,1.3345A1.4351,1.4351,0,0,1,83.1664,110.7882Z" transform="translate(-60.3285 -35.9399)"/><path d="M136.3236,68.7517a2.7108,2.7108,0,0,0-2.3353-1.3345H87.5035a2.7108,2.7108,0,0,0-2.3354,1.3345L70.0439,95.33a2.9617,2.9617,0,0,0-.3337,1.3345v9.8975a2.669,2.669,0,0,0,5.338,0v-9.119L89.06,72.8664h43.4822l14.0121,24.4657v36.81h-8.563V125.134a2.7061,2.7061,0,0,0-2.6689-2.669H86.169a2.7062,2.7062,0,0,0-2.669,2.669v9.0078H74.937V122.465a2.669,2.669,0,0,0-5.338,0v14.3458a2.7062,2.7062,0,0,0,2.669,2.669H86.169a2.7062,2.7062,0,0,0,2.669-2.669V127.803h43.7046v9.0078a2.7061,2.7061,0,0,0,2.669,2.669h13.9009a2.7062,2.7062,0,0,0,2.669-2.669V96.5536a2.9616,2.9616,0,0,0-.3336-1.3345Z" transform="translate(-60.3285 -35.9399)"/><path d="M93.62,113.902a2.7062,2.7062,0,0,0,2.669,2.669h28.8027a2.669,2.669,0,0,0,0-5.338H96.4A2.7309,2.7309,0,0,0,93.62,113.902Z" transform="translate(-60.3285 -35.9399)"/><path d="M143.6633,110.7882a6.6725,6.6725,0,1,0-6.6724,6.6725A6.6921,6.6921,0,0,0,143.6633,110.7882Zm-8.0069,0a1.3345,1.3345,0,1,1,1.3345,1.3345A1.4351,1.4351,0,0,1,135.6564,110.7882Z" transform="translate(-60.3285 -35.9399)"/><path d="M144.3306,60.7448a2.7107,2.7107,0,0,0-2.3354-1.3345H113.3036a2.669,2.669,0,0,0,0,5.3379h27.1347l14.0122,24.5769v39.4787a2.669,2.669,0,1,0,5.3379,0V88.5467a2.961,2.961,0,0,0-.3336-1.3345Z" transform="translate(-60.3285 -35.9399)"/><path d="M167.4618,79.3164,152.3375,52.7378a2.7108,2.7108,0,0,0-2.3353-1.3345H121.3106a2.669,2.669,0,1,0,0,5.338h27.1347l14.0121,24.5769v39.4787a2.669,2.669,0,0,0,5.338,0V80.54A1.2551,1.2551,0,0,0,167.4618,79.3164Z" transform="translate(-60.3285 -35.9399)"/></g></svg>